<svg width="89" height="14" viewBox="0 0 89 14" fill="none" xmlns="http://www.w3.org/2000/svg">
<path d="M7.39961 13.8C2.73961 13.8 -0.000390559 11.08 -0.000390559 6.90001C-0.000390559 2.72 2.73961 4.66347e-06 7.39961 4.66347e-06C11.8996 4.66347e-06 14.5996 2.14 14.5996 5.72V6.06001H10.3996V5.72C10.3996 4.2 9.67961 3.60001 7.45961 3.60001C4.73961 3.60001 3.99961 4.24 3.99961 6.90001C3.99961 9.56001 4.73961 10.2 7.45961 10.2C9.67961 10.2 10.3996 9.60001 10.3996 8.08001V7.74001H14.5996V8.08001C14.5996 11.66 11.8996 13.8 7.39961 13.8ZM19.0102 13.6H14.7902L20.5702 0.200004H25.9502L31.7502 13.6H27.4302L26.4102 11.12H20.0502L19.0102 13.6ZM22.2502 5.86L21.4702 7.74001H25.0302L24.2502 5.86L23.3702 3.60001H23.1102L22.2502 5.86Z" fill="#116295"/>
<path d="M42.1327 13.6H36.7327L31.3527 0.200004H35.8927L39.3527 9.80001H39.6127L42.9927 0.200004H47.5127L42.1327 13.6Z" fill="#F59E0B"/>
<path d="M59.8145 13.6H47.9145V0.200004H59.8145V3.58H51.6745V5.18H59.5145V8.54001H51.6745V10.22H59.8145V13.6ZM64.6432 13.6H60.8832V0.200004H64.8832L68.6032 5.22L70.5632 8.30001H70.8232L70.6432 5.38001V0.200004H74.4032V13.6H70.4032L66.4432 8.44001L64.7432 5.80001H64.4832L64.6432 8.36001V13.6ZM83.8098 13.6H80.0498V3.58H75.3098V0.200004H88.5298V3.58H83.8098V13.6Z" fill="#1EA99C"/>
</svg>
