<svg width="72" height="15" viewBox="0 0 72 15" fill="none" xmlns="http://www.w3.org/2000/svg">
<path d="M5.64 14.56C3.90667 14.56 2.53333 14.08 1.52 13.12C0.506667 12.1467 1.10269e-07 10.76 1.10269e-07 8.96V5.6C1.10269e-07 3.8 0.506667 2.42 1.52 1.46C2.53333 0.486663 3.90667 -3.50761e-06 5.64 -3.50761e-06C7.36 -3.50761e-06 8.68667 0.47333 9.62 1.42C10.5667 2.35333 11.04 3.64 11.04 5.28V5.4H8.44V5.2C8.44 4.37333 8.20667 3.69333 7.74 3.16C7.28667 2.62666 6.58667 2.36 5.64 2.36C4.70667 2.36 3.97333 2.64666 3.44 3.22C2.90667 3.79333 2.64 4.57333 2.64 5.56V9C2.64 9.97333 2.90667 10.7533 3.44 11.34C3.97333 11.9133 4.70667 12.2 5.64 12.2C6.58667 12.2 7.28667 11.9333 7.74 11.4C8.20667 10.8533 8.44 10.1733 8.44 9.36V9H11.04V9.28C11.04 10.92 10.5667 12.2133 9.62 13.16C8.68667 14.0933 7.36 14.56 5.64 14.56ZM12.0748 14.28L15.7548 0.279996H20.3548L24.0348 14.28H21.3148L20.5548 11.2H15.5548L14.7948 14.28H12.0748ZM16.1748 8.76H19.9348L18.2348 1.94H17.8748L16.1748 8.76Z" fill="#116295"/>
<path d="M27.3927 14.28L23.8327 0.279996H26.5527L29.5127 12.58H29.7927L32.7527 0.279996H35.4727L31.9127 14.28H27.3927Z" fill="#F59E0B"/>
<path d="M37.1559 14.28V0.279996H46.1559V2.68H39.7959V6.02H45.5959V8.42H39.7959V11.88H46.2759V14.28H37.1559ZM48.2302 14.28V0.279996H53.2502L56.0302 12.48H56.3902V0.279996H58.9902V14.28H53.9702L51.1902 2.08H50.8302V14.28H48.2302ZM64.8686 14.28V2.68H60.7886V0.279996H71.5886V2.68H67.5086V14.28H64.8686Z" fill="#1EA99C"/>
</svg>
