<svg width="65" height="11" viewBox="0 0 65 11" fill="none" xmlns="http://www.w3.org/2000/svg">
<path d="M8.34 8.15999C8.34 8.26665 8.38 8.33332 8.46 8.35999C8.54 8.37332 8.58667 8.37999 8.6 8.37999L8.46 8.51999C8.32667 8.65332 8.24 8.72665 8.2 8.73999C8.17333 8.75332 8.12667 8.78665 8.06 8.83999L7.86 9.01999C7.48667 9.03332 7.16667 9.04665 6.9 9.05999C6.64667 9.05999 6.4 9.06665 6.16 9.07999C5.93333 9.07999 5.69333 9.07999 5.44 9.07999C5.18667 9.07999 4.87333 9.07999 4.5 9.07999C4.32667 9.05332 4.18 9.03999 4.06 9.03999C3.94 9.02665 3.82667 9.01999 3.72 9.01999C3.58667 9.01999 3.46667 9.02665 3.36 9.03999C3.26667 9.05332 3.16667 9.05999 3.06 9.05999C3.00667 9.05999 2.95333 9.05999 2.9 9.05999C2.86 9.04665 2.81333 9.03332 2.76 9.01999C2.6 8.96665 2.48 8.91999 2.4 8.87999C2.33333 8.83999 2.26 8.80665 2.18 8.77999C2.1 8.73999 2 8.69332 1.88 8.63999C1.77333 8.58665 1.60667 8.52665 1.38 8.45999L1.14 8.39999L0.68 7.97999C0.68 7.88665 0.64 7.80665 0.56 7.73999C0.493334 7.67332 0.42 7.57999 0.34 7.45999C0.26 7.32665 0.18 7.14665 0.1 6.91999C0.0333336 6.67999 2.02656e-07 6.34665 2.02656e-07 5.91999C2.02656e-07 5.67999 0.0133336 5.45332 0.0400003 5.23999C0.0666669 5.01332 0.126667 4.79999 0.22 4.59999C0.38 4.26665 0.526667 3.98665 0.66 3.75999C0.793334 3.51999 0.933334 3.29999 1.08 3.09999C1.24 2.89999 1.41333 2.71332 1.6 2.53999C1.78667 2.35332 2.01333 2.14665 2.28 1.91999C2.32 1.87999 2.41333 1.81999 2.56 1.73999C2.70667 1.65999 2.87333 1.57999 3.06 1.49999C3.24667 1.41999 3.44 1.35332 3.64 1.29999C3.85333 1.23332 4.06 1.19999 4.26 1.19999L4.8 1.03999C5.08 1.03999 5.32667 1.04665 5.54 1.05999C5.76667 1.05999 5.98667 1.05999 6.2 1.05999H7.64C7.72 1.13999 7.76667 1.22665 7.78 1.31999C7.80667 1.39999 7.82667 1.49332 7.84 1.59999C7.85333 1.69332 7.85333 1.79332 7.84 1.89999C7.84 1.99332 7.84667 2.07999 7.86 2.15999L7.48 3.07999L6.82 3.13999C6.7 3.13999 6.57333 3.15332 6.44 3.17999C6.32 3.19332 6.17333 3.19999 6 3.19999C5.98667 3.19999 5.95333 3.19332 5.9 3.17999C5.86 3.15332 5.79333 3.12665 5.7 3.09999C5.64667 3.09999 5.56 3.11332 5.44 3.13999C5.32 3.16665 5.18667 3.19999 5.04 3.23999C4.89333 3.27999 4.74 3.32665 4.58 3.37999C4.43333 3.43332 4.32 3.47999 4.24 3.51999C4.21333 3.51999 4.16 3.55332 4.08 3.61999C4.01333 3.67332 3.94 3.73332 3.86 3.79999C3.79333 3.86665 3.73333 3.92665 3.68 3.97999C3.62667 4.03332 3.6 4.05999 3.6 4.05999L3.5 4.13999C3.46 4.15332 3.39333 4.19332 3.3 4.25999C3.22 4.44665 3.12667 4.59332 3.02 4.69999C2.91333 4.80665 2.80667 4.91332 2.7 5.01999C2.60667 5.12665 2.52667 5.23999 2.46 5.35999C2.39333 5.47999 2.36 5.63999 2.36 5.83999C2.36 6.06665 2.38667 6.27999 2.44 6.47999C2.50667 6.66665 2.59333 6.83332 2.7 6.97999C2.80667 7.12665 2.92 7.24665 3.04 7.33999C3.17333 7.43332 3.30667 7.47999 3.44 7.47999C3.46667 7.47999 3.48667 7.47332 3.5 7.45999C3.59333 7.49999 3.67333 7.53332 3.74 7.55999C3.80667 7.57332 3.87333 7.58665 3.94 7.59999C4.02 7.61332 4.10667 7.62665 4.2 7.63999C4.29333 7.65332 4.42 7.67332 4.58 7.69999C4.92667 7.69999 5.24 7.69332 5.52 7.67999C5.8 7.65332 6.13333 7.63332 6.52 7.61999L7.36 7.65999C7.46667 7.65999 7.58 7.66665 7.7 7.67999C7.83333 7.67999 7.99333 7.67999 8.18 7.67999C8.18 7.70665 8.18667 7.75332 8.2 7.81999C8.22667 7.88665 8.27333 7.99999 8.34 8.15999ZM20.0309 9.57999L19.4709 9.63999C19.3909 9.62665 19.3043 9.63332 19.2109 9.65999C19.1309 9.67332 19.0309 9.67999 18.9109 9.67999C18.7776 9.67999 18.6643 9.67999 18.5709 9.67999C18.4776 9.66665 18.3909 9.65332 18.3109 9.63999L17.6909 9.57999C17.6376 9.25999 17.5909 8.96665 17.5509 8.69999C17.5109 8.41999 17.4909 8.09999 17.4909 7.73999C17.4909 7.61999 17.5043 7.55332 17.5309 7.53999C17.5576 7.52665 17.5709 7.49332 17.5709 7.43999C17.5709 7.38665 17.5576 7.27999 17.5309 7.11999C17.5176 6.95999 17.4976 6.79332 17.4709 6.61999C17.1909 6.63332 16.9043 6.64665 16.6109 6.65999C16.3309 6.65999 16.0509 6.65999 15.7709 6.65999C15.5976 6.65999 15.4043 6.65999 15.1909 6.65999C14.9909 6.65999 14.7976 6.66665 14.6109 6.67999C14.4243 6.67999 14.2509 6.69332 14.0909 6.71999C13.9443 6.74665 13.8309 6.79999 13.7509 6.87999C13.6309 7.17332 13.5243 7.43999 13.4309 7.67999C13.3376 7.91999 13.2443 8.15332 13.1509 8.37999C13.0709 8.59332 12.9843 8.81332 12.8909 9.03999C12.7976 9.26665 12.6976 9.51999 12.5909 9.79999H10.4709C10.4443 9.70665 10.4243 9.62665 10.4109 9.55999C10.3976 9.47999 10.3843 9.37999 10.3709 9.25999C10.4243 9.08665 10.4709 8.92665 10.5109 8.77999C10.5643 8.63332 10.6176 8.48665 10.6709 8.33999L10.9709 7.39999C11.1043 7.13332 11.2109 6.91332 11.2909 6.73999C11.3843 6.55332 11.5043 6.32665 11.6509 6.05999C11.7176 5.91332 11.8243 5.73999 11.9709 5.53999C12.1309 5.33999 12.2976 5.01332 12.4709 4.55999C12.6576 4.05332 12.8509 3.60665 13.0509 3.21999C13.2643 2.83332 13.4843 2.47332 13.7109 2.13999C13.9376 1.80665 14.1776 1.47332 14.4309 1.13999C14.6843 0.79332 14.9509 0.419986 15.2309 0.0199864H15.3709C15.4243 0.0199864 15.4776 0.0199864 15.5309 0.0199864C15.6109 0.0333196 15.6843 0.0399862 15.7509 0.0399862C15.8309 0.0399862 15.9376 0.0399862 16.0709 0.0399862C16.2576 0.0533197 16.4176 0.0666531 16.5509 0.0799862C16.6976 0.0799862 16.8376 0.086653 16.9709 0.0999866C17.1043 0.0999866 17.2376 0.106653 17.3709 0.119986C17.5043 0.119986 17.6576 0.119986 17.8309 0.119986C17.8443 0.146653 17.8909 0.226653 17.9709 0.359986C18.0643 0.479986 18.1309 0.566653 18.1709 0.619986C18.3309 0.899986 18.4376 1.19999 18.4909 1.51999C18.5443 1.83999 18.5909 2.11999 18.6309 2.35999C18.6443 2.46665 18.6576 2.60665 18.6709 2.77999C18.6976 2.93999 18.7243 3.09999 18.7509 3.25999C18.7776 3.41999 18.8109 3.57332 18.8509 3.71999C18.8909 3.86665 18.9443 3.97999 19.0109 4.05999C19.1176 4.60665 19.2109 5.10665 19.2909 5.55999C19.3709 6.01332 19.4443 6.44665 19.5109 6.85999C19.5909 7.27332 19.6709 7.69999 19.7509 8.13999C19.8309 8.56665 19.9243 9.04665 20.0309 9.57999ZM17.2909 5.39999C17.2643 5.25332 17.2443 5.12665 17.2309 5.01999C17.2309 4.89999 17.2243 4.77999 17.2109 4.65999L17.1709 3.93999C17.1443 3.72665 17.0843 3.50665 16.9909 3.27999C16.8976 3.05332 16.8309 2.77999 16.7909 2.45999C16.7509 2.44665 16.7309 2.42665 16.7309 2.39999V2.37999H16.6709C16.6576 2.37999 16.6309 2.37999 16.5909 2.37999C16.5509 2.36665 16.5043 2.35999 16.4509 2.35999C16.3843 2.47999 16.3043 2.57999 16.2109 2.65999C16.1309 2.73999 16.0509 2.81332 15.9709 2.87999C15.7176 3.10665 15.4976 3.40665 15.3109 3.77999C15.1243 4.13999 14.9643 4.49999 14.8309 4.85999L14.5509 5.45999V5.47999C14.5509 5.49332 14.5509 5.50665 14.5509 5.51999C14.5643 5.51999 14.5709 5.52665 14.5709 5.53999C14.8509 5.53999 15.1576 5.52665 15.4909 5.49999C15.5843 5.49999 15.7043 5.50665 15.8509 5.51999C16.0109 5.51999 16.1709 5.51999 16.3309 5.51999H17.1909L17.2909 5.39999Z" fill="#116295"/>
<path d="M31.1125 2.21999L30.7125 3.13999L30.4125 4.25999L28.8525 7.39999L28.6125 7.65999L28.3325 8.53999L28.0925 8.63999H26.5925H25.6125L25.3925 8.47999L25.3325 8.15999L23.8725 5.89999L23.5525 5.07999L22.2325 2.09999L22.2925 1.83999L23.2925 1.71999L23.4925 1.83999L24.8725 3.89999L25.0925 4.23999L26.5325 6.05999L26.8125 5.87999L26.9525 5.59999L27.1725 5.47999L27.4125 4.77999L27.8125 4.15999L28.3325 3.73999L29.4725 1.63999H30.7725L31.1125 1.67999V2.21999Z" fill="#F59E0B"/>
<path d="M42.2234 8.63999C42.2368 8.71999 42.2501 8.79332 42.2634 8.85999C42.2768 8.91332 42.2901 8.95999 42.3034 8.99999V9.13999C42.3034 9.15332 42.2768 9.19332 42.2234 9.25999C42.1834 9.31332 42.1368 9.39332 42.0834 9.49999L41.2234 9.55999L39.4034 9.91999L38.6234 10.16H34.6434V8.89999L34.5234 8.61999L34.7034 7.79999V4.49999L34.6034 4.21999V0.579986L34.8834 0.259986L35.0034 0.299986H36.7834L37.0634 0.519987L39.0834 0.239987L40.6834 -1.33324e-05L41.4834 0.259986V1.23999L41.1234 1.43999L36.8434 1.75999L36.7034 1.87999L37.0034 3.91999L37.1834 4.45999H37.7034L39.3034 4.27999L39.7034 4.31999H41.0234L41.1434 4.89999L40.9034 5.19999L40.1234 5.33999H39.5034L37.3034 5.77999V6.45999L37.5434 8.49999L37.7434 8.51999H41.8434L42.2234 8.63999ZM50.9228 7.73999L50.4228 7.03999C50.3295 6.90665 50.2028 6.76665 50.0428 6.61999C49.8828 6.47332 49.7295 6.33999 49.5828 6.21999C49.5162 6.17999 49.4495 6.11999 49.3828 6.03999C49.3295 5.94665 49.2695 5.85332 49.2028 5.75999C49.1362 5.66665 49.0628 5.57999 48.9828 5.49999C48.9162 5.40665 48.8428 5.34665 48.7628 5.31999C48.7362 5.31999 48.7028 5.31999 48.6628 5.31999C48.5962 5.31999 48.5495 5.29332 48.5228 5.23999C48.5095 5.18665 48.4895 5.11999 48.4628 5.03999C48.4495 4.94665 48.4228 4.85332 48.3828 4.75999C48.3428 4.65332 48.2695 4.54665 48.1628 4.43999L47.8828 3.93999H47.6428C47.6162 4.11332 47.6028 4.27332 47.6028 4.41999C47.6028 4.55332 47.6028 4.68665 47.6028 4.81999V5.29999C47.6028 5.49999 47.5962 5.70665 47.5828 5.91999C47.5828 6.13332 47.5628 6.37332 47.5228 6.63999C47.5228 6.70665 47.4962 6.86665 47.4428 7.11999C47.4028 7.35999 47.3495 7.62665 47.2828 7.91999C47.2162 8.19999 47.1562 8.48665 47.1028 8.77999C47.0495 9.05999 47.0228 9.27332 47.0228 9.41999L46.9028 9.51999H46.5628L45.4628 9.25999C45.3828 9.23332 45.3295 9.09999 45.3028 8.85999C45.2761 8.60665 45.2628 8.31999 45.2628 7.99999C45.2628 7.69332 45.2695 7.39332 45.2828 7.09999C45.2961 6.79332 45.3028 6.57999 45.3028 6.45999L45.4428 4.43999L45.2228 4.17999V1.21999L45.6228 0.819986L46.9828 1.05999L48.1828 0.859986L49.4028 3.01999L49.4428 3.17999L50.1428 4.19999L51.2428 5.33999L51.2828 5.45999H51.7628V0.859986L51.7828 0.719986H54.0028L54.2028 1.55999L54.3228 2.31999C54.1895 2.51999 54.1162 2.66665 54.1028 2.75999C54.0895 2.83999 54.0828 2.89332 54.0828 2.91999L53.8628 3.31999C53.9162 3.70665 53.9562 4.02665 53.9828 4.27999C54.0095 4.51999 54.0228 4.75332 54.0228 4.97999C54.0228 5.32665 53.9828 5.88665 53.9028 6.65999C53.8362 7.41999 53.8028 8.29332 53.8028 9.27999L53.6628 9.41999H53.3428L52.2028 9.13999C52.0695 9.08665 52.0028 9.06665 52.0028 9.07999V8.99999C52.0028 8.98665 52.0028 8.95999 52.0028 8.91999C52.0028 8.86665 52.0028 8.81332 52.0028 8.75999C51.9495 8.73332 51.8562 8.61332 51.7228 8.39999C51.6028 8.18665 51.4162 7.99332 51.1628 7.81999H51.1028C51.0895 7.79332 51.0762 7.77999 51.0628 7.77999C51.0628 7.77999 51.0562 7.77332 51.0428 7.75999C51.0295 7.75999 51.0228 7.75332 51.0228 7.73999H50.9228ZM59.5823 2.47999H59.4623C59.4623 2.42665 59.409 2.39999 59.3023 2.39999C59.209 2.39999 59.1357 2.43332 59.0823 2.49999L58.7223 2.53999C58.6557 2.53999 58.589 2.54665 58.5223 2.55999C58.469 2.55999 58.4157 2.55999 58.3623 2.55999C58.3357 2.54665 58.2823 2.53332 58.2023 2.51999C58.1223 2.49332 58.0357 2.47999 57.9423 2.47999C57.849 2.47999 57.7957 2.49999 57.7823 2.53999C57.5957 2.55332 57.469 2.56665 57.4023 2.57999C57.349 2.57999 57.2557 2.57999 57.1223 2.57999C57.0823 2.56665 57.049 2.55332 57.0223 2.53999C56.9957 2.51332 56.969 2.48665 56.9423 2.45999C56.8757 2.43332 56.8223 2.36665 56.7823 2.25999C56.7423 2.15332 56.7157 2.02665 56.7023 1.87999C56.7023 1.73332 56.7023 1.59332 56.7023 1.45999C56.7023 1.32665 56.7023 1.22665 56.7023 1.15999C56.7157 1.14665 56.729 1.13332 56.7423 1.11999C56.769 1.09332 56.7957 1.06665 56.8223 1.03999L56.9623 0.919986H57.2823C57.3757 0.93332 57.469 0.939987 57.5623 0.939987C57.6557 0.939987 57.7623 0.939987 57.8823 0.939987C57.8823 0.939987 57.9223 0.93332 58.0023 0.919986L58.1023 0.859986C58.5557 0.859986 58.9757 0.879986 59.3623 0.919986C59.749 0.946653 60.129 0.979986 60.5023 1.01999C60.889 1.05999 61.2757 1.09999 61.6623 1.13999C62.049 1.16665 62.4823 1.17999 62.9623 1.17999C62.9623 1.21999 62.9757 1.25332 63.0023 1.27999L63.0623 1.33999C63.089 1.35332 63.149 1.35999 63.2423 1.35999C63.4423 1.35999 63.5957 1.35999 63.7023 1.35999C63.8223 1.34665 63.9223 1.33332 64.0023 1.31999C64.0823 1.29332 64.1557 1.26665 64.2223 1.23999C64.289 1.21332 64.3757 1.18665 64.4823 1.15999C64.5357 1.22665 64.5557 1.29332 64.5423 1.35999C64.5423 1.42665 64.5957 1.49999 64.7023 1.57999C64.6757 1.61999 64.6623 1.66665 64.6623 1.71999C64.6623 1.78665 64.669 1.81999 64.6823 1.81999C64.6823 1.84665 64.6757 1.89332 64.6623 1.95999C64.649 2.02665 64.6423 2.07332 64.6423 2.09999C64.6423 2.15332 64.649 2.18665 64.6623 2.19999C64.689 2.19999 64.7157 2.19999 64.7423 2.19999C64.5957 2.29332 64.449 2.36665 64.3023 2.41999C64.169 2.45999 64.0757 2.48665 64.0223 2.49999C63.8623 2.49999 63.7157 2.49999 63.5823 2.49999C63.4623 2.49999 63.329 2.48665 63.1823 2.45999C62.9823 2.48665 62.8423 2.51332 62.7623 2.53999C62.6957 2.55332 62.6423 2.55999 62.6023 2.55999C62.509 2.55999 62.4423 2.55332 62.4023 2.53999C62.3623 2.52665 62.3023 2.50665 62.2223 2.47999H61.5023L61.5823 3.55999L62.0623 4.75999V8.17999L62.1823 8.59999V9.97999L61.6623 10.14L60.0423 9.99999L59.5423 10.1L59.3023 9.63999L59.2423 8.49999V5.69999L59.5823 3.77999V2.47999Z" fill="#1EA99C"/>
</svg>
