<svg width="75" height="15" viewBox="0 0 75 15" fill="none" xmlns="http://www.w3.org/2000/svg">
<path d="M11.9434 12.7637C11.2923 13.3236 10.5632 13.7533 9.75586 14.0527C8.94857 14.3522 8.11198 14.502 7.24609 14.502C6.58203 14.502 5.94076 14.4141 5.32227 14.2383C4.71029 14.069 4.13412 13.8281 3.59375 13.5156C3.0599 13.1966 2.57161 12.8158 2.12891 12.373C1.6862 11.9303 1.30534 11.4421 0.986328 10.9082C0.673828 10.3678 0.429688 9.79167 0.253906 9.17969C0.0846355 8.5612 5.12227e-08 7.91992 5.12227e-08 7.25586C5.12227e-08 6.5918 0.0846355 5.95052 0.253906 5.33203C0.429688 4.71354 0.673828 4.13737 0.986328 3.60351C1.30534 3.06315 1.6862 2.57161 2.12891 2.12891C2.57161 1.6862 3.0599 1.30859 3.59375 0.996092C4.13412 0.677082 4.71029 0.432941 5.32227 0.263671C5.94076 0.0878893 6.58203 -1.35414e-06 7.24609 -1.35414e-06C8.11198 -1.35414e-06 8.94857 0.149738 9.75586 0.449217C10.5632 0.742186 11.2923 1.17187 11.9434 1.73828L10.459 4.17969C10.0488 3.73698 9.5638 3.39844 9.00391 3.16406C8.44401 2.92318 7.85807 2.80273 7.24609 2.80273C6.6276 2.80273 6.04818 2.91992 5.50781 3.1543C4.96745 3.38867 4.49544 3.70768 4.0918 4.11133C3.68815 4.50846 3.36914 4.98047 3.13477 5.52734C2.90039 6.06771 2.7832 6.64388 2.7832 7.25586C2.7832 7.86784 2.90039 8.44401 3.13477 8.98437C3.36914 9.51823 3.68815 9.98698 4.0918 10.3906C4.49544 10.7943 4.96745 11.1133 5.50781 11.3477C6.04818 11.582 6.6276 11.6992 7.24609 11.6992C7.85807 11.6992 8.44401 11.582 9.00391 11.3477C9.5638 11.1068 10.0488 10.765 10.459 10.3223L11.9434 12.7637ZM21.8164 8.60352V5.80078C21.8164 5.41667 21.7415 5.05534 21.5918 4.7168C21.4486 4.37174 21.25 4.07226 20.9961 3.81836C20.7422 3.56445 20.4427 3.36588 20.0977 3.22266C19.7591 3.07292 19.3978 2.99805 19.0137 2.99805C18.6296 2.99805 18.265 3.07292 17.9199 3.22266C17.5814 3.36588 17.2852 3.56445 17.0313 3.81836C16.7773 4.07226 16.5755 4.37174 16.4258 4.7168C16.2826 5.05534 16.2109 5.41667 16.2109 5.80078V8.60352H21.8164ZM24.6191 14.1992H21.8164V11.3965H16.2109V14.1992H13.418V5.80078C13.418 5.02604 13.5645 4.30013 13.8574 3.62305C14.1504 2.93945 14.5475 2.34375 15.0488 1.83594C15.5566 1.32812 16.1491 0.927733 16.8262 0.634764C17.5098 0.341796 18.2389 0.195311 19.0137 0.195311C19.7884 0.195311 20.5143 0.341796 21.1914 0.634764C21.875 0.927733 22.4707 1.32812 22.9785 1.83594C23.4863 2.34375 23.8867 2.93945 24.1797 3.62305C24.4727 4.30013 24.6191 5.02604 24.6191 5.80078V14.1992Z" fill="#116295"/>
<path d="M37.4609 0.195311L32.8613 14.1992H30.0586L25.4785 0.195311H28.6621L31.4551 9.54102L34.2578 0.195311H37.4609Z" fill="#F59E0B"/>
<path d="M48.4082 14.1992H38.8086V0.195311H48.4082V2.99805H41.6113V5.80078H46.2109V8.60352H41.6113V11.3965H48.4082V14.1992ZM61.5723 14.1992H58.5742L53.1738 4.98047V14.1992H50.3711V0.195311H53.3691L58.7695 9.42383V0.195311H61.5723V14.1992ZM70.0586 14.1992H67.2656V2.99805H63.0566V0.195311H74.2578V2.99805H70.0586V14.1992Z" fill="#1EA99C"/>
</svg>
