<svg width="94" height="14" viewBox="0 0 94 14" fill="none" xmlns="http://www.w3.org/2000/svg">
<path d="M15.5804 8.54001C15.4604 9.58001 15.0938 10.4667 14.4804 11.2C13.8671 11.9333 13.0338 12.4933 11.9804 12.88C10.9271 13.2667 9.67376 13.46 8.22043 13.46C7.0071 13.46 5.89376 13.32 4.88043 13.04C3.88043 12.76 3.01376 12.34 2.28043 11.78C1.56043 11.22 1.00043 10.5267 0.60043 9.70001C0.20043 8.86001 0.000429851 7.88001 0.000429851 6.76001C0.000429851 5.64001 0.20043 4.66001 0.60043 3.82001C1.00043 2.98001 1.56043 2.28001 2.28043 1.72001C3.01376 1.14668 3.88043 0.72001 4.88043 0.440011C5.89376 0.146677 7.0071 1.04237e-05 8.22043 1.04237e-05C9.67376 1.04237e-05 10.9271 0.20001 11.9804 0.60001C13.0471 1.00001 13.8871 1.57334 14.5004 2.32001C15.1138 3.05334 15.4738 3.94668 15.5804 5.00001H12.9404C12.7671 4.44001 12.4738 3.96001 12.0604 3.56001C11.6604 3.14668 11.1404 2.83334 10.5004 2.62001C9.86043 2.40668 9.10043 2.30001 8.22043 2.30001C7.1271 2.30001 6.1671 2.47334 5.34043 2.82001C4.51376 3.15334 3.87376 3.65334 3.42043 4.32001C2.9671 4.97334 2.74043 5.78668 2.74043 6.76001C2.74043 7.72001 2.9671 8.52668 3.42043 9.18001C3.87376 9.83335 4.51376 10.3333 5.34043 10.68C6.1671 11.0133 7.1271 11.18 8.22043 11.18C9.10043 11.18 9.85376 11.0733 10.4804 10.86C11.1204 10.6467 11.6404 10.34 12.0404 9.94001C12.4538 9.54001 12.7538 9.07335 12.9404 8.54001H15.5804ZM19.5512 10.38V8.16001H28.1112V10.38H19.5512ZM16.3312 13.2L22.4112 0.260011H25.2912L31.4312 13.2H28.5312L23.2112 1.54001H24.4912L19.2112 13.2H16.3312Z" fill="#116295"/>
<path d="M36.4276 13.2L30.7076 0.260011H33.6476L38.5476 11.94H37.6276L42.5076 0.260011H45.4076L39.7476 13.2H36.4276Z" fill="#F59E0B"/>
<path d="M50.0154 7.80001V10.98H59.9954V13.2H47.3554V0.260011H59.9754V2.48001H50.0154V5.70001H58.1754V7.80001H50.0154ZM75.8465 10.56L75.0065 10.9V0.260011H77.6665V13.2H75.0065L64.5465 2.98001L65.3865 2.64001V13.2H62.7265V0.260011H65.3865L75.8465 10.56ZM79.6139 0.260011H93.2539V2.48001H79.6139V0.260011ZM85.1139 2.20001H87.7739V13.2H85.1139V2.20001Z" fill="#1EA99C"/>
</svg>
