<svg width="595" height="344" viewBox="0 0 595 344" fill="none" xmlns="http://www.w3.org/2000/svg">
<path d="M233 273.5L294.5 231.376H167.957L233 273.5M233.368 72L132.5 172.738M132.5 172.738L233 273.5" stroke="#116295" stroke-width="3"/>
<g filter="url(#filter0_d_2003_394)">
<circle cx="294" cy="113" r="12" fill="#1EA99C"/>
<circle cx="294" cy="113" r="10.5" stroke="#116295" stroke-width="3"/>
</g>
<g filter="url(#filter1_d_2003_394)">
<circle cx="132" cy="172" r="12" fill="#1EA99C"/>
<circle cx="132" cy="172" r="10.5" stroke="#116295" stroke-width="3"/>
</g>
<g filter="url(#filter2_d_2003_394)">
<circle cx="170" cy="113" r="12" fill="#1EA99C"/>
<circle cx="170" cy="113" r="10.5" stroke="#116295" stroke-width="3"/>
</g>
<g filter="url(#filter3_d_2003_394)">
<circle cx="170" cy="231" r="12" fill="#1EA99C"/>
<circle cx="170" cy="231" r="10.5" stroke="#116295" stroke-width="3"/>
</g>
<g filter="url(#filter4_d_2003_394)">
<circle cx="294" cy="231" r="12" fill="#1EA99C"/>
<circle cx="294" cy="231" r="10.5" stroke="#116295" stroke-width="3"/>
</g>
<g filter="url(#filter5_d_2003_394)">
<circle cx="233" cy="72" r="12" fill="#F59E0B"/>
<circle cx="233" cy="72" r="10.5" stroke="#116295" stroke-width="3"/>
</g>
<g filter="url(#filter6_d_2003_394)">
<circle cx="233" cy="272" r="12" fill="#1EA99C"/>
<circle cx="233" cy="272" r="10.5" stroke="#116295" stroke-width="3"/>
</g>
<path d="M213.112 171.472C213.112 167.035 214.072 163.088 215.992 159.632C217.912 156.133 220.579 153.424 223.992 151.504C227.448 149.541 231.352 148.56 235.704 148.56C241.037 148.56 245.603 149.968 249.4 152.784C253.197 155.6 255.736 159.44 257.016 164.304H244.984C244.088 162.427 242.808 160.997 241.144 160.016C239.523 159.035 237.667 158.544 235.576 158.544C232.205 158.544 229.475 159.717 227.384 162.064C225.293 164.411 224.248 167.547 224.248 171.472C224.248 175.397 225.293 178.533 227.384 180.88C229.475 183.227 232.205 184.4 235.576 184.4C237.667 184.4 239.523 183.909 241.144 182.928C242.808 181.947 244.088 180.517 244.984 178.64H257.016C255.736 183.504 253.197 187.344 249.4 190.16C245.603 192.933 241.037 194.32 235.704 194.32C231.352 194.32 227.448 193.36 223.992 191.44C220.579 189.477 217.912 186.768 215.992 183.312C214.072 179.856 213.112 175.909 213.112 171.472ZM291.686 186.064H274.918L272.23 194H260.774L277.03 149.072H289.702L305.958 194H294.374L291.686 186.064ZM288.87 177.616L283.302 161.168L277.798 177.616H288.87Z" fill="#116295"/>
<path d="M353.082 149.072L337.146 194H323.45L307.514 149.072H319.162L330.298 182.992L341.498 149.072H353.082Z" fill="#F59E0B"/>
<path d="M368.6 157.84V166.928H383.256V175.376H368.6V185.232H385.176V194H357.656V149.072H385.176V157.84H368.6ZM432.473 194H421.529L403.225 166.288V194H392.281V149.072H403.225L421.529 176.912V149.072H432.473V194ZM472.726 149.072V157.84H460.822V194H449.878V157.84H437.974V149.072H472.726Z" fill="#1EA99C"/>
<defs>
<filter id="filter0_d_2003_394" x="262" y="81" width="64" height="64" filterUnits="userSpaceOnUse" color-interpolation-filters="sRGB">
<feFlood flood-opacity="0" result="BackgroundImageFix"/>
<feColorMatrix in="SourceAlpha" type="matrix" values="0 0 0 0 0 0 0 0 0 0 0 0 0 0 0 0 0 0 127 0" result="hardAlpha"/>
<feOffset/>
<feGaussianBlur stdDeviation="10"/>
<feComposite in2="hardAlpha" operator="out"/>
<feColorMatrix type="matrix" values="0 0 0 0 0.117647 0 0 0 0 0.662745 0 0 0 0 0.611765 0 0 0 0.5 0"/>
<feBlend mode="normal" in2="BackgroundImageFix" result="effect1_dropShadow_2003_394"/>
<feBlend mode="normal" in="SourceGraphic" in2="effect1_dropShadow_2003_394" result="shape"/>
</filter>
<filter id="filter1_d_2003_394" x="100" y="140" width="64" height="64" filterUnits="userSpaceOnUse" color-interpolation-filters="sRGB">
<feFlood flood-opacity="0" result="BackgroundImageFix"/>
<feColorMatrix in="SourceAlpha" type="matrix" values="0 0 0 0 0 0 0 0 0 0 0 0 0 0 0 0 0 0 127 0" result="hardAlpha"/>
<feOffset/>
<feGaussianBlur stdDeviation="10"/>
<feComposite in2="hardAlpha" operator="out"/>
<feColorMatrix type="matrix" values="0 0 0 0 0.117647 0 0 0 0 0.662745 0 0 0 0 0.611765 0 0 0 0.5 0"/>
<feBlend mode="normal" in2="BackgroundImageFix" result="effect1_dropShadow_2003_394"/>
<feBlend mode="normal" in="SourceGraphic" in2="effect1_dropShadow_2003_394" result="shape"/>
</filter>
<filter id="filter2_d_2003_394" x="138" y="81" width="64" height="64" filterUnits="userSpaceOnUse" color-interpolation-filters="sRGB">
<feFlood flood-opacity="0" result="BackgroundImageFix"/>
<feColorMatrix in="SourceAlpha" type="matrix" values="0 0 0 0 0 0 0 0 0 0 0 0 0 0 0 0 0 0 127 0" result="hardAlpha"/>
<feOffset/>
<feGaussianBlur stdDeviation="10"/>
<feComposite in2="hardAlpha" operator="out"/>
<feColorMatrix type="matrix" values="0 0 0 0 0.117647 0 0 0 0 0.662745 0 0 0 0 0.611765 0 0 0 0.5 0"/>
<feBlend mode="normal" in2="BackgroundImageFix" result="effect1_dropShadow_2003_394"/>
<feBlend mode="normal" in="SourceGraphic" in2="effect1_dropShadow_2003_394" result="shape"/>
</filter>
<filter id="filter3_d_2003_394" x="138" y="199" width="64" height="64" filterUnits="userSpaceOnUse" color-interpolation-filters="sRGB">
<feFlood flood-opacity="0" result="BackgroundImageFix"/>
<feColorMatrix in="SourceAlpha" type="matrix" values="0 0 0 0 0 0 0 0 0 0 0 0 0 0 0 0 0 0 127 0" result="hardAlpha"/>
<feOffset/>
<feGaussianBlur stdDeviation="10"/>
<feComposite in2="hardAlpha" operator="out"/>
<feColorMatrix type="matrix" values="0 0 0 0 0.117647 0 0 0 0 0.662745 0 0 0 0 0.611765 0 0 0 0.5 0"/>
<feBlend mode="normal" in2="BackgroundImageFix" result="effect1_dropShadow_2003_394"/>
<feBlend mode="normal" in="SourceGraphic" in2="effect1_dropShadow_2003_394" result="shape"/>
</filter>
<filter id="filter4_d_2003_394" x="262" y="199" width="64" height="64" filterUnits="userSpaceOnUse" color-interpolation-filters="sRGB">
<feFlood flood-opacity="0" result="BackgroundImageFix"/>
<feColorMatrix in="SourceAlpha" type="matrix" values="0 0 0 0 0 0 0 0 0 0 0 0 0 0 0 0 0 0 127 0" result="hardAlpha"/>
<feOffset/>
<feGaussianBlur stdDeviation="10"/>
<feComposite in2="hardAlpha" operator="out"/>
<feColorMatrix type="matrix" values="0 0 0 0 0.117647 0 0 0 0 0.662745 0 0 0 0 0.611765 0 0 0 0.5 0"/>
<feBlend mode="normal" in2="BackgroundImageFix" result="effect1_dropShadow_2003_394"/>
<feBlend mode="normal" in="SourceGraphic" in2="effect1_dropShadow_2003_394" result="shape"/>
</filter>
<filter id="filter5_d_2003_394" x="201" y="40" width="64" height="64" filterUnits="userSpaceOnUse" color-interpolation-filters="sRGB">
<feFlood flood-opacity="0" result="BackgroundImageFix"/>
<feColorMatrix in="SourceAlpha" type="matrix" values="0 0 0 0 0 0 0 0 0 0 0 0 0 0 0 0 0 0 127 0" result="hardAlpha"/>
<feOffset/>
<feGaussianBlur stdDeviation="10"/>
<feComposite in2="hardAlpha" operator="out"/>
<feColorMatrix type="matrix" values="0 0 0 0 0.960784 0 0 0 0 0.619608 0 0 0 0 0.0431373 0 0 0 1 0"/>
<feBlend mode="normal" in2="BackgroundImageFix" result="effect1_dropShadow_2003_394"/>
<feBlend mode="normal" in="SourceGraphic" in2="effect1_dropShadow_2003_394" result="shape"/>
</filter>
<filter id="filter6_d_2003_394" x="201" y="240" width="64" height="64" filterUnits="userSpaceOnUse" color-interpolation-filters="sRGB">
<feFlood flood-opacity="0" result="BackgroundImageFix"/>
<feColorMatrix in="SourceAlpha" type="matrix" values="0 0 0 0 0 0 0 0 0 0 0 0 0 0 0 0 0 0 127 0" result="hardAlpha"/>
<feOffset/>
<feGaussianBlur stdDeviation="10"/>
<feComposite in2="hardAlpha" operator="out"/>
<feColorMatrix type="matrix" values="0 0 0 0 0.117647 0 0 0 0 0.662745 0 0 0 0 0.611765 0 0 0 0.5 0"/>
<feBlend mode="normal" in2="BackgroundImageFix" result="effect1_dropShadow_2003_394"/>
<feBlend mode="normal" in="SourceGraphic" in2="effect1_dropShadow_2003_394" result="shape"/>
</filter>
</defs>
</svg>
