<svg width="610" height="344" viewBox="0 0 610 344" fill="none" xmlns="http://www.w3.org/2000/svg">
<path d="M131 172H232" stroke="#116295" stroke-width="3"/>
<path d="M233 273.5L294.5 231.376H167.957L233 273.5M233.368 72L132.5 172.738M132.5 172.738L233 273.5" stroke="#116295" stroke-width="3"/>
<g filter="url(#filter0_d_2002_385)">
<circle cx="294" cy="113" r="12" fill="#1EA99C"/>
<circle cx="294" cy="113" r="10.5" stroke="#116295" stroke-width="3"/>
</g>
<g filter="url(#filter1_d_2002_385)">
<circle cx="132" cy="172" r="12" fill="#1EA99C"/>
<circle cx="132" cy="172" r="10.5" stroke="#116295" stroke-width="3"/>
</g>
<g filter="url(#filter2_d_2002_385)">
<circle cx="170" cy="113" r="12" fill="#1EA99C"/>
<circle cx="170" cy="113" r="10.5" stroke="#116295" stroke-width="3"/>
</g>
<g filter="url(#filter3_d_2002_385)">
<circle cx="170" cy="231" r="12" fill="#1EA99C"/>
<circle cx="170" cy="231" r="10.5" stroke="#116295" stroke-width="3"/>
</g>
<g filter="url(#filter4_d_2002_385)">
<circle cx="294" cy="231" r="12" fill="#1EA99C"/>
<circle cx="294" cy="231" r="10.5" stroke="#116295" stroke-width="3"/>
</g>
<g filter="url(#filter5_d_2002_385)">
<circle cx="233" cy="72" r="12" fill="#F59E0B"/>
<circle cx="233" cy="72" r="10.5" stroke="#116295" stroke-width="3"/>
</g>
<g filter="url(#filter6_d_2002_385)">
<circle cx="233" cy="272" r="12" fill="#1EA99C"/>
<circle cx="233" cy="272" r="10.5" stroke="#116295" stroke-width="3"/>
</g>
<path d="M228.112 171.472C228.112 167.035 229.072 163.088 230.992 159.632C232.912 156.133 235.579 153.424 238.992 151.504C242.448 149.541 246.352 148.56 250.704 148.56C256.037 148.56 260.603 149.968 264.4 152.784C268.197 155.6 270.736 159.44 272.016 164.304H259.984C259.088 162.427 257.808 160.997 256.144 160.016C254.523 159.035 252.667 158.544 250.576 158.544C247.205 158.544 244.475 159.717 242.384 162.064C240.293 164.411 239.248 167.547 239.248 171.472C239.248 175.397 240.293 178.533 242.384 180.88C244.475 183.227 247.205 184.4 250.576 184.4C252.667 184.4 254.523 183.909 256.144 182.928C257.808 181.947 259.088 180.517 259.984 178.64H272.016C270.736 183.504 268.197 187.344 264.4 190.16C260.603 192.933 256.037 194.32 250.704 194.32C246.352 194.32 242.448 193.36 238.992 191.44C235.579 189.477 232.912 186.768 230.992 183.312C229.072 179.856 228.112 175.909 228.112 171.472ZM306.686 186.064H289.918L287.23 194H275.774L292.03 149.072H304.702L320.958 194H309.374L306.686 186.064ZM303.87 177.616L298.302 161.168L292.798 177.616H303.87Z" fill="#116295"/>
<path d="M368.082 149.072L352.146 194H338.45L322.514 149.072H334.162L345.298 182.992L356.498 149.072H368.082Z" fill="#F59E0B"/>
<path d="M383.6 157.84V166.928H398.256V175.376H383.6V185.232H400.176V194H372.656V149.072H400.176V157.84H383.6ZM447.473 194H436.529L418.225 166.288V194H407.281V149.072H418.225L436.529 176.912V149.072H447.473V194ZM487.726 149.072V157.84H475.822V194H464.878V157.84H452.974V149.072H487.726Z" fill="#1EA99C"/>
<defs>
<filter id="filter0_d_2002_385" x="262" y="81" width="64" height="64" filterUnits="userSpaceOnUse" color-interpolation-filters="sRGB">
<feFlood flood-opacity="0" result="BackgroundImageFix"/>
<feColorMatrix in="SourceAlpha" type="matrix" values="0 0 0 0 0 0 0 0 0 0 0 0 0 0 0 0 0 0 127 0" result="hardAlpha"/>
<feOffset/>
<feGaussianBlur stdDeviation="10"/>
<feComposite in2="hardAlpha" operator="out"/>
<feColorMatrix type="matrix" values="0 0 0 0 0.117647 0 0 0 0 0.662745 0 0 0 0 0.611765 0 0 0 0.5 0"/>
<feBlend mode="normal" in2="BackgroundImageFix" result="effect1_dropShadow_2002_385"/>
<feBlend mode="normal" in="SourceGraphic" in2="effect1_dropShadow_2002_385" result="shape"/>
</filter>
<filter id="filter1_d_2002_385" x="100" y="140" width="64" height="64" filterUnits="userSpaceOnUse" color-interpolation-filters="sRGB">
<feFlood flood-opacity="0" result="BackgroundImageFix"/>
<feColorMatrix in="SourceAlpha" type="matrix" values="0 0 0 0 0 0 0 0 0 0 0 0 0 0 0 0 0 0 127 0" result="hardAlpha"/>
<feOffset/>
<feGaussianBlur stdDeviation="10"/>
<feComposite in2="hardAlpha" operator="out"/>
<feColorMatrix type="matrix" values="0 0 0 0 0.117647 0 0 0 0 0.662745 0 0 0 0 0.611765 0 0 0 0.5 0"/>
<feBlend mode="normal" in2="BackgroundImageFix" result="effect1_dropShadow_2002_385"/>
<feBlend mode="normal" in="SourceGraphic" in2="effect1_dropShadow_2002_385" result="shape"/>
</filter>
<filter id="filter2_d_2002_385" x="138" y="81" width="64" height="64" filterUnits="userSpaceOnUse" color-interpolation-filters="sRGB">
<feFlood flood-opacity="0" result="BackgroundImageFix"/>
<feColorMatrix in="SourceAlpha" type="matrix" values="0 0 0 0 0 0 0 0 0 0 0 0 0 0 0 0 0 0 127 0" result="hardAlpha"/>
<feOffset/>
<feGaussianBlur stdDeviation="10"/>
<feComposite in2="hardAlpha" operator="out"/>
<feColorMatrix type="matrix" values="0 0 0 0 0.117647 0 0 0 0 0.662745 0 0 0 0 0.611765 0 0 0 0.5 0"/>
<feBlend mode="normal" in2="BackgroundImageFix" result="effect1_dropShadow_2002_385"/>
<feBlend mode="normal" in="SourceGraphic" in2="effect1_dropShadow_2002_385" result="shape"/>
</filter>
<filter id="filter3_d_2002_385" x="138" y="199" width="64" height="64" filterUnits="userSpaceOnUse" color-interpolation-filters="sRGB">
<feFlood flood-opacity="0" result="BackgroundImageFix"/>
<feColorMatrix in="SourceAlpha" type="matrix" values="0 0 0 0 0 0 0 0 0 0 0 0 0 0 0 0 0 0 127 0" result="hardAlpha"/>
<feOffset/>
<feGaussianBlur stdDeviation="10"/>
<feComposite in2="hardAlpha" operator="out"/>
<feColorMatrix type="matrix" values="0 0 0 0 0.117647 0 0 0 0 0.662745 0 0 0 0 0.611765 0 0 0 0.5 0"/>
<feBlend mode="normal" in2="BackgroundImageFix" result="effect1_dropShadow_2002_385"/>
<feBlend mode="normal" in="SourceGraphic" in2="effect1_dropShadow_2002_385" result="shape"/>
</filter>
<filter id="filter4_d_2002_385" x="262" y="199" width="64" height="64" filterUnits="userSpaceOnUse" color-interpolation-filters="sRGB">
<feFlood flood-opacity="0" result="BackgroundImageFix"/>
<feColorMatrix in="SourceAlpha" type="matrix" values="0 0 0 0 0 0 0 0 0 0 0 0 0 0 0 0 0 0 127 0" result="hardAlpha"/>
<feOffset/>
<feGaussianBlur stdDeviation="10"/>
<feComposite in2="hardAlpha" operator="out"/>
<feColorMatrix type="matrix" values="0 0 0 0 0.117647 0 0 0 0 0.662745 0 0 0 0 0.611765 0 0 0 0.5 0"/>
<feBlend mode="normal" in2="BackgroundImageFix" result="effect1_dropShadow_2002_385"/>
<feBlend mode="normal" in="SourceGraphic" in2="effect1_dropShadow_2002_385" result="shape"/>
</filter>
<filter id="filter5_d_2002_385" x="201" y="40" width="64" height="64" filterUnits="userSpaceOnUse" color-interpolation-filters="sRGB">
<feFlood flood-opacity="0" result="BackgroundImageFix"/>
<feColorMatrix in="SourceAlpha" type="matrix" values="0 0 0 0 0 0 0 0 0 0 0 0 0 0 0 0 0 0 127 0" result="hardAlpha"/>
<feOffset/>
<feGaussianBlur stdDeviation="10"/>
<feComposite in2="hardAlpha" operator="out"/>
<feColorMatrix type="matrix" values="0 0 0 0 0.960784 0 0 0 0 0.619608 0 0 0 0 0.0431373 0 0 0 1 0"/>
<feBlend mode="normal" in2="BackgroundImageFix" result="effect1_dropShadow_2002_385"/>
<feBlend mode="normal" in="SourceGraphic" in2="effect1_dropShadow_2002_385" result="shape"/>
</filter>
<filter id="filter6_d_2002_385" x="201" y="240" width="64" height="64" filterUnits="userSpaceOnUse" color-interpolation-filters="sRGB">
<feFlood flood-opacity="0" result="BackgroundImageFix"/>
<feColorMatrix in="SourceAlpha" type="matrix" values="0 0 0 0 0 0 0 0 0 0 0 0 0 0 0 0 0 0 127 0" result="hardAlpha"/>
<feOffset/>
<feGaussianBlur stdDeviation="10"/>
<feComposite in2="hardAlpha" operator="out"/>
<feColorMatrix type="matrix" values="0 0 0 0 0.117647 0 0 0 0 0.662745 0 0 0 0 0.611765 0 0 0 0.5 0"/>
<feBlend mode="normal" in2="BackgroundImageFix" result="effect1_dropShadow_2002_385"/>
<feBlend mode="normal" in="SourceGraphic" in2="effect1_dropShadow_2002_385" result="shape"/>
</filter>
</defs>
</svg>
